<svg xmlns="http://www.w3.org/2000/svg" viewBox="0 0 1280 640">
  <defs>
    <linearGradient id="bg" x1="0" y1="0" x2="1" y2="1">
      <stop offset="0%" stop-color="#1A1A1A"/>
      <stop offset="100%" stop-color="#2D2518"/>
    </linearGradient>
    <clipPath id="banner-pin">
      <path d="M 64 16 C 94 16 112 38 112 64 C 112 96 64 128 64 128 C 64 128 16 96 16 64 C 16 38 34 16 64 16 Z"/>
    </clipPath>
  </defs>

  <!-- Background -->
  <rect width="1280" height="640" fill="url(#bg)"/>

  <!-- Subtle decorative pattern (Lucide beer glyph at low opacity) -->
  <g opacity="0.04" fill="none" stroke="#F59E0B" stroke-width="1.5">
    <g transform="translate(100,80) scale(1.5) rotate(-12)">
      <path d="M17 11h1a3 3 0 0 1 0 6h-1"/><path d="M9 12v6"/><path d="M13 12v6"/>
      <path d="M5 8v12a2 2 0 0 0 2 2h8a2 2 0 0 0 2-2V8"/>
    </g>
    <g transform="translate(1100,450) scale(1.5) rotate(-12)">
      <path d="M17 11h1a3 3 0 0 1 0 6h-1"/><path d="M9 12v6"/><path d="M13 12v6"/>
      <path d="M5 8v12a2 2 0 0 0 2 2h8a2 2 0 0 0 2-2V8"/>
    </g>
  </g>

  <!-- Pin + pint icon. Nested SVG so we can use the icon's own
       coordinate system (viewBox 12 20 120 120) inside a 460×460 box. -->
  <svg x="80" y="90" width="460" height="460" viewBox="12 20 120 120">
    <g transform="translate(8,8)">
      <rect x="0" y="0" width="128" height="128" fill="#F4B73C" clip-path="url(#banner-pin)"/>
      <g clip-path="url(#banner-pin)">
        <path d="M 54 82
                 Q 54 86 58 86
                 L 70 86
                 Q 74 86 74 82
                 L 140 115
                 L 64 128
                 Z"
              fill="#2B3B4A"/>
      </g>
      <g clip-path="url(#banner-pin)">
        <path d="M 52 40 L 76 40 L 74 82 Q 74 86 70 86 L 58 86 Q 54 86 54 82 Z"
              fill="#FFFFFF" stroke="#1C1410" stroke-width="2.25" stroke-linejoin="round"/>
        <rect x="52" y="40" width="24" height="5" fill="#1C1410"/>
      </g>
      <path d="M 64 16 C 94 16 112 38 112 64 C 112 96 64 128 64 128 C 64 128 16 96 16 64 C 16 38 34 16 64 16 Z"
            fill="none" stroke="#1C1410" stroke-width="2.75" stroke-linejoin="round"/>
    </g>
  </svg>

  <!-- Title -->
  <text x="580" y="285" font-family="Georgia, serif" font-weight="800" font-size="118" fill="#F59E0B">
    Sunny Pint
  </text>
  <text x="580" y="350" font-family="system-ui, sans-serif" font-weight="400" font-size="36" fill="#9E9892">
    Find sunny beer garden seats
  </text>
  <text x="580" y="400" font-family="system-ui, sans-serif" font-weight="400" font-size="26" fill="#666059">
    Real-time shadow maps for UK pubs
  </text>

  <!-- Domain -->
  <text x="580" y="478" font-family="ui-monospace, monospace" font-weight="600" font-size="24" fill="#D97706">
    sunny-pint.co.uk
  </text>
</svg>
