<svg xmlns="http://www.w3.org/2000/svg" width="140" height="120" viewBox="0 0 140 120" overflow="visible">
  <defs>
    <g id="p">
      <path d="M17 11h1a3 3 0 0 1 0 6h-1"/>
      <path d="M9 12v6"/>
      <path d="M13 12v6"/>
      <path d="M14 7.5c-1 0-1.44.5-3 .5s-2-.5-3-.5-1.72.5-2.5.5a2.5 2.5 0 0 1 0-5c.78 0 1.57.5 2.5.5S9.44 2 11 2s2 1.5 3 1.5 1.72-.5 2.5-.5a2.5 2.5 0 0 1 0 5c-.78 0-1.5-.5-2.5-.5Z"/>
      <path d="M5 8v12a2 2 0 0 0 2 2h8a2 2 0 0 0 2-2V8"/>
    </g>
  </defs>
  <g fill="none" stroke="#6B7280" stroke-width="1.4" stroke-linecap="round" stroke-linejoin="round" opacity="0.12">
    <!-- Row 1: centres at (35,30) and (105,30) -->
    <use href="#p" transform="translate(35,30) rotate(-12) scale(1.2) translate(-12,-12)"/>
    <use href="#p" transform="translate(105,30) rotate(-12) scale(1.2) translate(-12,-12)"/>
    <!-- Row 2: centres at (0,90), (70,90), (140,90) — 0 and 140 overlap at tile edge -->
    <use href="#p" transform="translate(0,90) rotate(-12) scale(1.2) translate(-12,-12)"/>
    <use href="#p" transform="translate(70,90) rotate(-12) scale(1.2) translate(-12,-12)"/>
    <use href="#p" transform="translate(140,90) rotate(-12) scale(1.2) translate(-12,-12)"/>
  </g>
</svg>
